<svg xmlns="http://www.w3.org/2000/svg" width="87" height="87" fill="none"><rect width="85" height="85" x="1" y="1" fill="#fff" rx="10"/><path fill="#FC6030" fill-rule="evenodd" d="M.5 48h4.746c4.675 0 14.167 0 23.587-3.25C38.254 41.5 47.746 35 57.167 35c9.42 0 18.912 6.5 23.587 9.75L85.5 48v31.5l-2.5 4-3 2c-4 1.5-13.5 0-22.833.5-9.421 0-19.246.5-28.667.5-9.42 0-18.5-.5-23-2l-3-3-1.5-3L.5 48Z" clip-rule="evenodd"/><path fill="#fff" d="M11.086 58.313h1.43v.539a2.826 2.826 0 0 1 1.837-.682c1.694 0 3.036 1.353 3.036 2.992 0 1.65-1.342 2.992-3.036 2.992-.693 0-1.32-.253-1.826-.671v2.827h-1.441v-7.997Zm1.419 2.849c0 .968.77 1.727 1.727 1.727.946 0 1.727-.759 1.727-1.727a1.74 1.74 0 0 0-1.727-1.738c-.957 0-1.727.781-1.727 1.738Zm6.298 1.243c0-1.023.693-1.606 1.903-1.694l1.672-.121v-.22c0-.561-.374-.902-1.045-.902-.517 0-1.001.165-1.507.506l-.605-1.023a3.786 3.786 0 0 1 2.288-.759c1.364 0 2.266.792 2.266 2.002v2.233c0 .209.11.33.319.33h.297V64h-.671c-.55 0-.968-.253-1.166-.671-.396.506-1.023.814-1.782.814-1.133 0-1.97-.737-1.97-1.738Zm1.375-.011c0 .396.374.649.913.649.715 0 1.287-.462 1.287-1.034v-.363l-1.474.132c-.484.044-.726.242-.726.616Zm6.478-4.686a.803.803 0 0 1-.814-.803c0-.451.363-.792.814-.792.45 0 .792.341.792.792a.784.784 0 0 1-.792.803Zm.715.605V64H25.93v-5.687h1.44Zm4.165 5.819c-1.496 0-2.409-.836-2.629-1.925h1.364c.143.572.65.814 1.265.814.528 0 .814-.242.814-.583 0-.231-.187-.429-.572-.528l-1.177-.275c-1.056-.253-1.595-.803-1.595-1.672 0-1.089.902-1.793 2.123-1.793 1.452 0 2.332.858 2.497 1.947h-1.353c-.154-.594-.682-.836-1.155-.836-.462 0-.704.231-.704.528 0 .297.231.495.682.605l1.09.264c1.044.253 1.561.803 1.561 1.65 0 1.023-.836 1.804-2.21 1.804Zm3.538-1.727c0-1.023.693-1.606 1.903-1.694l1.672-.121v-.22c0-.561-.374-.902-1.045-.902-.517 0-1 .165-1.507.506l-.605-1.023a3.786 3.786 0 0 1 2.288-.759c1.364 0 2.266.792 2.266 2.002v2.233c0 .209.11.33.32.33h.296V64h-.67c-.55 0-.969-.253-1.167-.671-.396.506-1.023.814-1.782.814-1.133 0-1.969-.737-1.969-1.738Zm1.375-.011c0 .396.374.649.913.649.715 0 1.287-.462 1.287-1.034v-.363l-1.474.132c-.484.044-.726.242-.726.616Zm6.479-4.686a.803.803 0 0 1-.814-.803c0-.451.363-.792.814-.792.45 0 .791.341.791.792a.784.784 0 0 1-.791.803Zm.715.605V64h-1.441v-5.687h1.44Zm7.113 2.068V64h-1.44v-3.333c0-.737-.474-1.221-1.178-1.221-.693 0-1.188.462-1.188 1.221V64h-1.44v-5.687h1.44v.484a2.148 2.148 0 0 1 1.562-.638c1.331 0 2.244.979 2.244 2.222ZM54.811 64c-1.034 0-1.562-.616-1.562-1.43v-3.014h-1.11v-1.243h1.11v-1.65h1.43v1.65h1.254v1.243H54.68v2.761c0 .297.21.44.54.44h.714V64h-1.122Zm3.346-6.292a.803.803 0 0 1-.814-.803c0-.451.363-.792.814-.792.451 0 .792.341.792.792a.784.784 0 0 1-.792.803Zm.715.605V64h-1.44v-5.687h1.44Zm3.297 2.321V64h-1.43v-5.687h1.43v.462a2.162 2.162 0 0 1 1.53-.616c.835 0 1.506.396 1.87 1.001.384-.627 1.055-1.001 1.825-1.001 1.298 0 2.167.957 2.167 2.178V64h-1.43v-3.366c0-.704-.462-1.188-1.133-1.188-.66 0-1.133.462-1.133 1.188V64h-1.43v-3.366c0-.704-.462-1.188-1.133-1.188-.67 0-1.133.462-1.133 1.188Zm9.07.517c0-1.584 1.265-2.97 2.948-2.97 1.706 0 2.916 1.265 2.916 3.036v.418h-4.39c.188.737.803 1.276 1.596 1.276.605 0 1.078-.209 1.496-.748l1 .748c-.572.781-1.43 1.232-2.486 1.232-1.737 0-3.08-1.254-3.08-2.992Zm2.915-1.738c-.67 0-1.22.429-1.418 1.122h2.914a1.525 1.525 0 0 0-1.496-1.122Z"/><path fill="#FFDD95" stroke="#FFAF40" stroke-linecap="round" stroke-width=".253" d="M42.576 31.6c5.841 0 10.577-5.194 10.577-11.6S48.417 8.4 42.576 8.4C36.736 8.4 32 13.594 32 20c0 6.407 4.735 11.6 10.576 11.6Z"/><path stroke="#FFAF40" stroke-linecap="square" stroke-width=".253" d="M40.136 10.4h-3.28m2.873 18.8h-3.28m1.653-16.8h-3.28m2.06 2.4h-3.28m4.093 12h-3.28m1.653-9.2h-3.28m3.28 6.4h-3.28m2.873-3.2h-3.28"/><path fill="#FFAF40" d="M45.424 32C51.264 32 56 26.627 56 20S51.265 8 45.424 8s-10.577 5.373-10.577 12 4.736 12 10.577 12Z"/><path stroke="#FFDD95" stroke-dasharray="0.25 0.89" stroke-linecap="round" stroke-width=".253" d="M45.424 28.8c4.268 0 7.729-3.94 7.729-8.8 0-4.86-3.46-8.8-7.73-8.8-4.268 0-7.728 3.94-7.728 8.8 0 4.86 3.46 8.8 7.729 8.8Z"/><path stroke="#22BA8E" stroke-linecap="round" stroke-linejoin="round" d="M50 19v-3h-3"/><path stroke="#22BA8E" stroke-linecap="round" stroke-linejoin="round" d="m40 23 2.7-3 1.8 2 4.5-5"/><rect width="85" height="85" x="1" y="1" stroke="#FC6030" rx="10"/></svg>